<?xml version="1.0" encoding="utf-8"?>
<!-- Generator: Adobe Illustrator 26.1.0, SVG Export Plug-In . SVG Version: 6.00 Build 0)  -->
<svg version="1.1" id="Capa_1" xmlns="http://www.w3.org/2000/svg" xmlns:xlink="http://www.w3.org/1999/xlink" x="0px" y="0px"
	 viewBox="0 0 200 200" style="enable-background:new 0 0 200 200;" xml:space="preserve">
<style type="text/css">
	.st0{fill:#0A344E;}
	.st1{fill:url(#SVGID_1_);}
	.st2{fill:url(#SVGID_00000091720244755695920790000001940262078033028006_);}
</style>
<circle class="st0" cx="100" cy="100" r="141.73"/>
<g>
	<linearGradient id="SVGID_1_" gradientUnits="userSpaceOnUse" x1="21.4455" y1="100" x2="221.9203" y2="100">
		<stop  offset="0.0485" style="stop-color:#EE7059"/>
		<stop  offset="0.1076" style="stop-color:#E66F5B"/>
		<stop  offset="0.2097" style="stop-color:#D16D60"/>
		<stop  offset="0.3424" style="stop-color:#AE6967"/>
		<stop  offset="0.5006" style="stop-color:#7A616F"/>
		<stop  offset="0.6787" style="stop-color:#265574"/>
		<stop  offset="0.6962" style="stop-color:#175474"/>
	</linearGradient>
	<path class="st1" d="M30.57,56.63l8.67,8.67l0,0l34.74,0l-0.05,34.68l8.67,8.67l0,0l4.11,4.56l4.56,4.11L91.23,65.3h26.16
		l8.71,8.71v0h0l8.53,8.53h0.37l-0.09,0.09l0.1,0.1l8.53,8.53v0.16l4.42,4.36l4.14,4.09l-0.53,0.53l0.41,0.02l0.05,8.08l0.18,0.18
		h0.18l-0.09,0.09l-0.05,0.05v17.3h0.05l-0.05,0.05v26.11h8.58l0.14-0.14v0.14h8.72v-8.59l-0.13-0.13h-0.01l0.14-0.14v-17.07
		l-0.23-0.23h0.18l0.05-0.05v-17.07l-0.32-0.32h0.32v-8.72l8.72-8.72h0l0.04-0.04l8.49-8.49l0.1-0.1l-0.09-0.09h0.37l8.53-8.53h0v0
		l8.71-8.71h0v-0.08l-0.08-0.08l0,0l0.09-0.09l8.63-8.63h0l8.72-8.72h-17.35v0.17h-8.68l-0.04,0.04l-4.34,4.34l-4.35,4.34
		l-0.04,0.04l-4.34,4.34l-4.35,4.34l-17.34,17.34l-4.39-4.37l-0.01,0.01l-4.26-4.26h-0.19v-0.19l-4.27-4.26l-4.26-4.26h-0.19v-0.19
		l-4.27-4.26l-4.26-4.26h-0.19v-0.19l-4.27-4.26l-4.26-4.26H82.7v0.19l-0.1-0.1l-0.1,0.1v-0.19l-61.07,0.09"/>
	<g>
		
			<linearGradient id="SVGID_00000044143851195151283270000005065239216141614726_" gradientUnits="userSpaceOnUse" x1="-28.3238" y1="100.0844" x2="84.8262" y2="100.0844">
			<stop  offset="0.6447" style="stop-color:#EF7C67"/>
			<stop  offset="0.6838" style="stop-color:#EB7B68"/>
			<stop  offset="0.73" style="stop-color:#E07969"/>
			<stop  offset="0.7799" style="stop-color:#CD756C"/>
			<stop  offset="0.8324" style="stop-color:#B3706F"/>
			<stop  offset="0.8869" style="stop-color:#906972"/>
			<stop  offset="0.9432" style="stop-color:#615F75"/>
			<stop  offset="1" style="stop-color:#175474"/>
		</linearGradient>
		<polygon style="fill:url(#SVGID_00000044143851195151283270000005065239216141614726_);" points="91.23,143.58 91.23,152.3 
			82.7,152.3 82.7,152.1 82.61,152.2 82.51,152.1 82.51,152.3 73.99,152.3 73.89,152.2 69.62,147.95 65.27,143.61 65.27,143.58 
			65.24,143.58 60.89,139.24 56.55,134.9 56.55,134.86 56.51,134.86 52.16,130.53 47.83,126.21 47.83,126.14 47.76,126.14 
			43.43,121.82 39.11,117.51 39.11,117.42 39.03,117.42 34.7,113.11 30.39,108.81 30.39,108.71 30.29,108.71 25.97,104.41 
			21.67,100.11 21.67,99.99 21.55,99.99 17.25,95.7 12.96,91.42 12.96,91.27 12.81,91.27 8.52,86.99 4.26,82.74 4.24,82.72 
			4.24,82.55 4.07,82.55 -0.12,78.37 -4.48,74.02 -4.48,82.55 -4.66,82.55 -4.57,82.64 -4.67,82.74 -4.48,82.74 -4.48,152.3 
			-21.92,152.3 -21.92,82.74 -21.73,82.74 -21.83,82.64 -21.74,82.55 -21.92,82.55 -21.92,47.87 -4.48,47.87 4.24,56.58 4.24,56.59 
			4.24,56.59 12.96,65.3 12.96,65.3 12.96,65.3 21.67,74.02 21.67,74.02 21.68,74.02 30.3,82.64 30.2,82.74 30.58,82.74 
			39.11,91.27 47.83,99.99 56.55,108.71 56.55,108.71 82.51,134.67 82.51,135.05 82.61,134.96 		"/>
	</g>
</g>
</svg>
